<svg width="43" height="39" viewBox="0 0 43 39" fill="none" xmlns="http://www.w3.org/2000/svg">
<path d="M1.24806 27.5819V1.24693C10.6211 3.24632 14.3647 5.44859 21.1369 11.6213C27.5017 4.81815 32.7171 2.62428 41.8544 1.24693V27.5819L23.623 37.1583V20.3996H19.4795V37.1583L1.24806 27.5819Z" fill="#7C0000"/>
<path fill-rule="evenodd" clip-rule="evenodd" d="M0.496094 0.344833L1.41069 0.539927C6.13224 1.54709 9.48911 2.61622 12.5315 4.23532C15.4021 5.76297 17.9562 7.76117 21.0964 10.5902C24.1242 7.44178 26.9508 5.28752 30.1179 3.7526C33.4592 2.13326 37.1343 1.22547 41.7381 0.531502L42.6063 0.400621V28.0118L22.871 38.3781V21.1238H20.2314V38.3781L0.496094 28.0118V0.344833ZM30.794 5.04628C27.6578 6.56621 24.8345 8.75086 21.6955 12.106L21.1797 12.6574L20.6199 12.1472C17.2475 9.07329 14.6736 7.03004 11.8041 5.50291C9.13015 4.0799 6.1639 3.08643 2.00003 2.15377V27.152L18.7275 35.9384V19.6755H24.3749V35.9384L41.1024 27.152V2.09774C36.985 2.76218 33.7324 3.6222 30.794 5.04628Z" fill="#7C0000"/>
</svg>
