<svg width="28" height="29" viewBox="0 0 24 25" fill="none" xmlns="http://www.w3.org/2000/svg">
<g id="&#229;&#164;&#180;&#230;&#157;&#161;icon">
<path id="Vector" d="M18.3342 22.0052H5.52395C3.575 22.0052 1.98828 20.4088 1.98828 18.4458V5.55765C1.98828 3.59683 3.575 2.00046 5.52395 2.00046H18.3342C20.2831 2.00046 21.8699 3.59683 21.8699 5.55765V18.4458C21.872 20.4088 20.2853 22.0052 18.3342 22.0052ZM5.52395 2.15178C3.65761 2.15178 2.13869 3.67995 2.13869 5.55765V18.4458C2.13869 20.3257 3.65761 21.8538 5.52609 21.8538H18.3363C20.2048 21.8538 21.7237 20.3257 21.7237 18.4458V5.55765C21.7237 3.67782 20.2048 2.14965 18.3363 2.14965H5.52395V2.15178Z" fill="#291F64"/>
<path id="Vector_2" fill-rule="evenodd" clip-rule="evenodd" d="M1.98828 18.448L21.872 17.4015V5.55771L1.98828 6.60421V18.448ZM12.4088 9.27894C12.4088 9.27894 12.8727 9.61782 12.9236 9.65192C13.2547 9.88128 13.6928 10.1844 14.3735 10.4991C13.7473 10.6919 13.0268 10.8831 12.1952 11.0672V12.2245C13.7816 11.8815 15.0247 11.4925 16.0063 11.0986C16.9761 11.3806 18.2292 11.6382 19.8742 11.8216V10.6643C19.022 10.5649 18.287 10.4454 17.6503 10.3135C18.5694 9.78801 19.0973 9.30519 19.4466 8.97206V8.79527L19.4487 8.79517V7.71032L19.4466 7.71042L19.1857 7.72417L14.7247 7.95892L13.5697 7.47796L12.4088 9.27894ZM14.1723 9.07289L17.888 8.87729C17.4804 9.17671 16.9044 9.52954 16.0413 9.89708C15.1811 9.62067 14.5985 9.3288 14.1723 9.07289ZM8.30727 8.02579L9.52962 7.96183C9.4987 10.2729 9.45595 11.6567 9.12186 12.7417L11.6548 12.6081V13.6929L8.61895 13.8522C8.13399 14.6368 7.37995 15.3758 6.1994 16.4232L4.27374 16.5255C4.34527 16.4644 4.41377 16.4047 4.48053 16.3466L4.51736 16.3145C5.70455 15.2793 6.52047 14.5672 7.07354 13.9333L3.97762 14.0958V13.013L7.81431 12.8107C8.24215 11.8256 8.27576 10.4515 8.30727 8.02579ZM7.40744 8.73546V9.94604L4.68734 9.69668V8.4882L7.40744 8.73546ZM4.68734 10.5343V11.7449L7.40744 11.9943V10.7837L4.68734 10.5343ZM15.401 13.4962L12.1952 13.6653V12.5804L15.401 12.4114V11.7939L16.6531 11.7299V12.3454L19.8745 12.1755V13.2603L16.6531 13.4302V15.8754L15.401 15.9415V13.4962ZM10.4688 14.2983L8.99222 14.375L10.1786 16.2165L11.6551 16.1398L10.4688 14.2983ZM17.2224 13.9422L18.6969 13.8655L19.8832 15.7069L18.4087 15.7837L17.2224 13.9422ZM14.8619 14.0658L13.3854 14.1447L12.1991 16.1097L13.6756 16.033L14.8619 14.0658Z" fill="#291F64"/>
</g>
</svg>
